<svg xmlns="http://www.w3.org/2000/svg" viewBox="0 0 1920 1080">
  <defs/>
  <g opacity=".5">
    <path fill="#fff" d="M61.967 1013.85l207.486 171.85 9.877-136.92-217.363-34.93zm207.998 173.65l-.381-.14-210.061-173.99a.604.604 0 01-.162-.71c.11-.24.373-.38.637-.34l220.059 35.37c.306.05.523.33.501.64l-9.999 138.61a.61.61 0 01-.361.51l-.233.05z"/>
    <path fill="#fff" d="M61.363 1012.54l218.165 35.07 68.951-255.514L61.363 1012.54zm218.6 36.34l-.094-.01-220.06-35.37a.596.596 0 01-.268-1.06l289.608-222.36.694-.024a.595.595 0 01.245.651l-69.549 257.733a.602.602 0 01-.576.44z"/>
    <path fill="#fff" d="M349.495 792.909l-68.694 254.551 125.221-30.6-56.527-223.951zm-69.532 255.971l-.425-.18-.149-.57 69.549-257.731c.07-.265.335-.431.58-.443a.595.595 0 01.573.45l57.232 226.744-.067.45-.368.28-126.783 30.98-.142.02z"/>
    <path fill="#fff" d="M350.404 791.653l56.705 224.647 161.902-117.692-218.607-106.955zm56.341 226.237l-.202-.03-.375-.42-57.233-226.743a.593.593 0 01.203-.61l.638-.072 220.651 107.957.332.484-.243.534-163.419 118.79-.352.11z"/>
    <path fill="#fff" d="M-116.117 592.702l176.27 419.268 288.189-221.271-464.459-197.997zM59.903 1013.5l-.152-.02-.397-.34-177.142-421.337a.591.591 0 01.131-.651.59.59 0 01.653-.126l466.749 198.977.359.472-.228.549L60.267 1013.38l-.363.12zM408.203 1016.98l141.529 27.65 19.654-144.82-161.183 117.17zm142.035 28.95l-.115-.01-143.491-28.04a.585.585 0 01-.468-.45.584.584 0 01.23-.61l163.418-118.793.656-.031a.598.598 0 01.286.591l-19.925 146.833-.243.4-.348.11zM878.723 1098.88l-6.094 56.75 261.091-164.842-254.997 108.092zm-6.816 58.51l-.315-.08a.619.619 0 01-.279-.58l6.263-58.33.36-.49 262.074-111.08a.598.598 0 01.76.272c.14.274.05.615-.21.78L872.226 1157.3l-.319.09zM270.601 1186.33l163.971 8.33-154.105-145.08-9.866 136.75zm165.561 9.6h-.031l-166.197-8.43-.416-.21-.148-.43 9.998-138.62a.59.59 0 01.379-.51l.625.12 156.195 147.05a.59.59 0 01.141.67.593.593 0 01-.546.36z"/>
    <path fill="#fff" d="M281.17 1048.6l154.115 145.09-29.024-175.66-125.091 30.57zm154.992 147.33l-.408-.16-156.2-147.05-.166-.59.432-.43 126.784-30.98.47.08.261.4 29.416 178.04c.038.25-.086.5-.31.62l-.279.07z"/>
    <path fill="#fff" d="M407.475 1018.05l29.049 175.82 112.66-148.13-141.709-27.69zm28.687 177.88l-.146-.02a.607.607 0 01-.445-.48l-29.414-178.04.175-.52.528-.16 143.492 28.04.441.37-.081.57-114.076 150-.474.24zM872.677 1157.01l49.19 100.75 215.663-267.966-264.853 167.216zm49.066 102.45h-.067l-.469-.33-49.837-102.07a.605.605 0 01.217-.77l268.333-169.417a.607.607 0 01.77.108c.19.217.2.543.01.77L922.205 1259.24l-.462.22z"/>
    <path fill="#fff" d="M437.206 1194.94l244.599 51.28-131.603-199.86-112.996 148.58zm245.891 52.76l-.122-.01-246.937-51.77-.436-.38.083-.57 114.079-150 .495-.23.477.27 132.862 201.77-.005.66-.496.26z"/>
    <path fill="#fff" d="M551.48 1046.14l131.765 200.1 193.458-147.41-325.223-52.69zm131.617 201.56l-.098-.01-.4-.26-132.859-201.77-.003-.65a.59.59 0 01.596-.26l327.932 53.12c.233.04.424.22.481.45a.58.58 0 01-.217.61l-195.07 148.65-.362.12zM1140.35 988.194L923.583 1257.53l385.487-146.05-168.72-123.286zM921.743 1259.46l-.482-.24a.6.6 0 01.019-.73l218.5-271.486a.59.59 0 01.81-.107l170.08 124.263c.17.13.26.35.23.56-.03.22-.17.41-.38.48l-388.565 147.22-.212.04z"/>
    <path fill="#fff" d="M872.131 941.104l6.596 156.476 259.423-109.963-266.019-46.513zm6.038 157.956l-.319-.09-.277-.48-6.665-158.075.203-.474.495-.138 268.734 46.987a.6.6 0 01.49.52.588.588 0 01-.36.617L878.401 1099.01l-.232.05z"/>
    <path fill="#fff" d="M552.672 1045.12l323.938 52.49-111.751-125.808-212.187 73.318zm325.497 53.94l-.095-.01-327.931-53.13a.595.595 0 01-.101-1.15l214.805-74.224a.592.592 0 01.639.167l113.127 127.357c.167.18.2.46.076.68l-.52.31z"/>
    <path fill="#fff" d="M570.656 899.326L550.96 1044.45l212.316-73.363-192.62-71.761zm-20.418 146.604l-.377-.14-.214-.53 19.925-146.833.286-.431.512-.046 194.877 72.601a.594.594 0 01-.009 1.12L550.433 1045.9l-.195.03z"/>
    <path fill="#fff" d="M766.115 971.418l111.387 125.402-6.561-155.647-104.826 30.245zm112.054 127.642l-.445-.2-113.128-127.356-.128-.56.407-.408 106.462-30.719.515.088.248.46 6.665 158.075c.01.25-.14.48-.374.57l-.222.05zM1108.5 871.682l-19.3 326.708 187.13-173.58-167.83-153.128zm-19.98 328.748l-.26-.05a.62.62 0 01-.34-.58l19.47-329.437a.58.58 0 01.37-.517l.63.112 169.23 154.412.19.44-.19.44-188.7 175.02-.4.16zM330.329 1115.43l22.217 82.5 275.11-371.309-297.327 288.809zm21.961 84.44l-.111-.01a.59.59 0 01-.463-.43l-22.627-84.03.16-.58 302.834-294.159a.597.597 0 01.894.782L352.77 1199.63l-.48.24z"/>
    <path fill="#fff" d="M353.086 1199.2l122.578 113.42 155.179-488.302L353.086 1199.2zm122.861 115.09l-.405-.15-123.657-114.42a.607.607 0 01-.074-.8l280.208-378.188a.59.59 0 01.751-.176c.26.131.383.434.295.71l-156.55 492.614-.417.39-.151.02zM1570.88 873.77l-287.75 321.83 890.51-18.55-602.76-303.28zm-289.11 323.05c-.23 0-.44-.14-.54-.35l.1-.64 288.96-323.195a.607.607 0 01.72-.133l605.31 304.558c.24.12.38.4.31.67a.6.6 0 01-.57.46l-894.27 18.63h-.02z"/>
    <path fill="#fff" d="M1276.65 1026.14l-186.58 173.07 191.09-3.57-4.51-169.5zm-188.13 174.29c-.25 0-.46-.14-.56-.37a.604.604 0 01.15-.66l188.7-175.03.63-.11c.22.09.36.3.37.53l4.56 171.42-.16.43-.42.18-193.26 3.61h-.01z"/>
    <path fill="#fff" d="M1277.82 1025.17l4.51 169.54 285.81-319.662-290.32 150.122zm3.95 171.65l-.2-.04a.595.595 0 01-.39-.54l-4.56-171.41c-.01-.23.12-.45.32-.55l293.53-151.776a.59.59 0 01.74.162c.18.229.17.549-.03.763l-288.96 323.191-.45.2zM934.149 902.682L477.921 1312.73l609.699-113.33-153.471-296.718zM475.947 1314.29a.59.59 0 01-.536-.33.608.608 0 01.138-.71l458.376-411.972.505-.143.422.313 154.198 298.112v.54l-.42.32-612.573 113.86-.11.01z"/>
    <path fill="#fff" d="M632.894 821.81L477.18 1311.79l455.929-409.775-300.215-80.205zm-156.947 492.48l-.324-.09a.599.599 0 01-.243-.68l156.551-492.614a.596.596 0 01.719-.395l301.828 80.634.424.438-.181.582-458.376 411.975-.398.15z"/>
    <path fill="#fff" d="M935.224 902.165l152.826 295.465 19.29-326.511-172.116 31.046zm153.296 298.265c-.22 0-.43-.12-.53-.32L933.796 901.996l-.007-.537.429-.324 173.662-31.322.5.138.2.484-19.47 329.435c-.01.27-.21.49-.47.55l-.12.01zM236.514 900.673l93.352 213.547 300.768-292.153-394.12 78.606zm93.149 215.177l-.113-.02-.433-.34-93.99-215.02.016-.515.413-.305 396.825-79.149a.61.61 0 01.646.308.6.6 0 01-.114.705L330.078 1115.68l-.415.17z"/>
    <path fill="#fff" d="M105.009 1000.52l-255.123 216.06 478.016-101.57-222.893-114.49zm-257.314 217.73a.599.599 0 01-.386-1.05l257.234-217.847a.588.588 0 01.657-.074l224.736 115.441c.224.12.351.36.319.61a.591.591 0 01-.468.5l-481.968 102.4-.124.02z"/>
    <path fill="#fff" d="M106.041 999.708l222.405 114.252-93.016-212.794-129.389 98.542zm223.622 116.142l-.272-.07-224.736-115.44-.321-.481.233-.525 130.744-99.577.511-.102.396.338 93.993 215.017c.099.23.044.5-.14.67l-.408.17z"/>
    <path fill="#76C6EF" d="M1560.95 1026.57c-4.58 0-8.31-3.72-8.31-8.31s3.73-8.31 8.31-8.31c1.09 0 2.13.2 3.09.59v15.43c-.96.39-2 .6-3.09.6z"/>
    <path fill="#00FFF0" d="M1342.34 1079.31a7.539 7.539 0 110-15.08 7.539 7.539 0 110 15.08zM1306.44 1029.38c-4.15 0-7.51-3.36-7.51-7.51 0-4.14 3.36-7.5 7.51-7.5 4.14 0 7.5 3.36 7.5 7.5 0 4.15-3.36 7.51-7.5 7.51zM860.686 1103.67c-5.677 0-10.416-3.99-11.572-9.31l21.751 3.52a11.83 11.83 0 01-10.179 5.79zm10.763-6.9l-22.535-3.65c-.046-.42-.069-.85-.069-1.28 0-6.54 5.299-11.85 11.841-11.85.095 0 .188 0 .283.01l11.503 12.95a11.75 11.75 0 01-1.023 3.82zm1.058-5.58l-9.79-11.02c5.361.93 9.492 5.47 9.79 11.02z"/>
    <path fill="#00FFF0" d="M870.865 1097.88l-21.751-3.52c-.088-.41-.155-.82-.2-1.24l22.535 3.65c-.176.38-.369.75-.584 1.11zm1.607-4.93L860.969 1080l11.503 12.95z"/>
    <path fill="#00FFF0" d="M872.472 1092.95L860.969 1080c.596.01 1.178.07 1.748.17l9.791 11.02c.009.21.016.43.016.65 0 .37-.016.74-.052 1.11zM846.07 918.457a4.662 4.662 0 01-4.663-4.663 4.662 4.662 0 119.326 0 4.664 4.664 0 01-4.663 4.663zM634.069 1038.12a6.61 6.61 0 11-.001-13.22 6.61 6.61 0 01.001 13.22zM221.738 998.326a9.695 9.695 0 01-9.696-9.696c0-5.352 4.341-9.698 9.696-9.698 5.354 0 9.697 4.346 9.697 9.698 0 5.357-4.343 9.696-9.697 9.696zM272.811 941.884a9.215 9.215 0 01-9.219-9.217 9.217 9.217 0 019.219-9.218 9.218 9.218 0 019.218 9.218 9.216 9.216 0 01-9.218 9.217z"/>
    <path fill="#76C6EF" d="M1199.67 936.858c-5.58 0-10.11-4.527-10.11-10.112 0-5.583 4.53-10.113 10.11-10.113 5.59 0 10.11 4.53 10.11 10.113 0 5.585-4.52 10.112-10.11 10.112zM1191.2 1010.48a5.46 5.46 0 01-5.46-5.46c0-3.01 2.45-5.459 5.46-5.459 3.02 0 5.47 2.449 5.47 5.459 0 3.02-2.45 5.46-5.47 5.46zM989.859 923.327a6.041 6.041 0 110-12.084 6.043 6.043 0 110 12.084zM938.369 965.146c-6.022 0-10.902-4.88-10.902-10.902 0-1.177.186-2.31.531-3.37l21.265 3.716c-.183 5.862-4.994 10.556-10.894 10.556zm10.866-11.769l-20.798-3.638a10.903 10.903 0 019.932-6.394c5.723 0 10.422 4.417 10.866 10.032z"/>
    <path fill="#5092C2" d="M949.263 954.59l-21.265-3.716c.127-.389.272-.768.439-1.135l20.797 3.638c.022.286.034.574.034.867 0 .117-.003.232-.005.346z"/>
    <path fill="#76C6EF" d="M660.819 1086.69c-5.063 0-9.166-4.1-9.166-9.16 0-5.06 4.103-9.17 9.166-9.17 5.061 0 9.166 4.11 9.166 9.17s-4.105 9.16-9.166 9.16zM734.597 946.063a8.672 8.672 0 01-8.673-8.673 8.674 8.674 0 118.673 8.673zM488.306 1088.73c-5.345 0-9.677-4.33-9.677-9.67 0-5.35 4.332-9.68 9.677-9.68a9.678 9.678 0 019.679 9.68c0 5.34-4.335 9.67-9.679 9.67zM300.831 1065.13a3.702 3.702 0 01-3.699-3.7c0-2.04 1.656-3.7 3.699-3.7s3.7 1.66 3.7 3.7-1.657 3.7-3.7 3.7zM299.398 991.586c-1.177 0-2.313-.178-3.38-.51l5.928-21.97c5.06 1.158 8.835 5.688 8.835 11.097 0 6.287-5.097 11.383-11.383 11.383zm-4.503-.925c-4.047-1.745-6.881-5.771-6.881-10.458 0-6.284 5.097-11.383 11.384-11.383.463 0 .921.028 1.37.081l-5.873 21.76z"/>
    <path fill="#5092C2" d="M294.896 990.661h-.001l5.873-21.76-5.872 21.76z"/>
    <path fill="#5092C2" d="M296.018 991.076a11.058 11.058 0 01-1.122-.415l5.872-21.76c.4.048.793.117 1.179.205l-5.929 21.97z"/>
    <path fill="#00FFF0" d="M1444.4 879.475c-4.5 0-8.14-3.645-8.14-8.141a8.138 8.138 0 018.14-8.144c4.49 0 8.14 3.645 8.14 8.144a8.144 8.144 0 01-8.14 8.141zM1429.3 1039.16c-1.79 0-3.42-.72-4.6-1.9l8.69-9.71a6.496 6.496 0 012.44 5.09c0 3.6-2.92 6.52-6.53 6.52zm-5.37-2.82a6.464 6.464 0 01-1.15-3.7c0-3.6 2.92-6.53 6.52-6.53 1.11 0 2.16.28 3.08.78l-8.45 9.45z"/>
    <path fill="#00FFF0" d="M1424.7 1037.26c-.29-.28-.54-.59-.77-.92l8.45-9.45c.36.19.69.41 1.01.66l-8.69 9.71zM1474.37 1086.24c-4.36 0-7.9-3.53-7.9-7.9 0-4.37 3.54-7.91 7.9-7.91 4.37 0 7.91 3.54 7.91 7.91s-3.54 7.9-7.91 7.9zM1433.71 1090.69c-4 0-7.24-3.24-7.24-7.24 0-3.99 3.24-7.23 7.24-7.23s7.24 3.24 7.24 7.23c0 4-3.24 7.24-7.24 7.24zM1141.31 1074.19c-5.58 0-10.11-4.52-10.11-10.1s4.53-10.1 10.11-10.1c5.57 0 10.09 4.52 10.09 10.1s-4.52 10.1-10.09 10.1zM1031.75 970.882a11.48 11.48 0 01-8.05-3.276l12.83 2.241a11.508 11.508 0 01-4.78 1.035zm6.42-1.955l-15.71-2.749a11.427 11.427 0 01-2.23-6.82c0-6.36 5.15-11.522 11.52-11.522 6.36 0 11.52 5.162 11.52 11.522a11.5 11.5 0 01-5.1 9.569zM1036.53 969.847l-12.83-2.241c-.45-.441-.87-.917-1.24-1.428l15.71 2.749c-.52.35-1.07.658-1.64.92zM1077.01 893.795a3.954 3.954 0 01-3.95-3.955 3.954 3.954 0 117.91 0 3.956 3.956 0 01-3.96 3.955zM575.62 1059.37a7.929 7.929 0 01-7.488-10.53l15.412 2.49v.11c0 4.38-3.55 7.93-7.924 7.93zm7.814-9.26l-14.809-2.4a7.915 7.915 0 016.995-4.19 7.93 7.93 0 017.814 6.59z"/>
    <path fill="#00FFF0" d="M583.544 1051.33l-15.412-2.49c.136-.39.3-.77.493-1.13l14.809 2.4c.067.4.105.81.11 1.22zM673.597 1031.53a6.324 6.324 0 01-6.327-6.33c0-3.49 2.83-6.32 6.327-6.32a6.325 6.325 0 110 12.65zM544.743 970.87c-5.533 0-10.017-4.484-10.017-10.017 0-5.531 4.484-10.018 10.017-10.018 5.531 0 10.02 4.487 10.02 10.018 0 5.533-4.489 10.017-10.02 10.017zM438.539 883.537c-5.936 0-10.748-4.813-10.748-10.749 0-5.931 4.812-10.747 10.748-10.747 5.933 0 10.747 4.816 10.747 10.747 0 5.936-4.814 10.749-10.747 10.749zM643.054 883.289a6.745 6.745 0 11-.004-13.49 6.745 6.745 0 01.004 13.49z"/>
  </g>
  <g filter="url(#filter0_d)">
    <path fill="#00FFF0" fill-rule="evenodd" d="M-150.585 693.157c-16.944 21.101-13.574 51.942 7.527 68.886l124.66 100.098c21.1 16.944 51.942 13.573 68.885-7.528l100.098-124.658c16.944-21.102 13.574-51.943-7.527-68.887L18.398 560.97c-21.1-16.943-51.942-13.573-68.885 7.528l-100.098 124.659zm44.131-15.492c-22.13 27.56-17.728 67.843 9.832 89.974l62.73 50.37c27.561 22.131 67.844 17.729 89.975-9.832l50.371-62.73c22.13-27.561 17.728-67.843-9.832-89.974l-62.73-50.371c-27.561-22.13-67.844-17.728-89.975 9.832l-50.371 62.731z" clip-rule="evenodd"/>
  </g>
  <g filter="url(#filter1_d)">
    <path fill="#00FFF0" fill-rule="evenodd" d="M1749.62 61.934c-16.95 21.1-13.58 51.942 7.52 68.887l124.65 100.106c21.11 16.945 51.95 13.577 68.89-7.523l100.11-124.653c16.94-21.1 13.57-51.941-7.53-68.886L1918.61-70.241c-21.1-16.945-51.94-13.577-68.88 7.523L1749.62 61.934zm44.13-15.49c-22.13 27.56-17.73 67.843 9.83 89.975l62.73 50.375c27.55 22.133 67.84 17.733 89.97-9.826l50.38-62.727c22.13-27.56 17.73-67.842-9.83-89.975l-62.73-50.374c-27.56-22.133-67.84-17.734-89.97 9.826l-50.38 62.727z" clip-rule="evenodd"/>
  </g>
  <g opacity=".5">
    <path fill="#fff" d="M-169.273-167.136L38.213 4.721l9.877-136.918-217.363-34.939zM38.725 6.514l-.381-.138-210.061-173.989a.597.597 0 01.475-1.049l220.06 35.375c.305.05.523.325.5.632l-10 138.617a.597.597 0 01-.36.504l-.233.048zM1195.89-45.308l-91.41 199.853 159.3-63.232-67.89-136.62zm-92.57 201.55l-.43-.184a.592.592 0 01-.11-.657l92.55-202.34c.09-.207.3-.345.53-.348l.54.332 68.74 138.318.02.48-.34.34-161.28 64.019-.22.04z"/>
    <path fill="#fff" d="M39.361 5.354l163.971 8.322L49.227-131.406 39.36 5.354zm165.561 9.595l-.031-.003L38.694 6.514l-.416-.2-.148-.439 9.998-138.616a.596.596 0 01.379-.512l.625.119 156.195 147.05a.587.587 0 01.141.668.595.595 0 01-.546.365z"/>
    <path fill="#fff" d="M49.93-132.378L204.045 12.707 175.021-162.95 49.93-132.378zM204.922 14.949l-.408-.165-156.2-147.048-.166-.586.432-.427 126.784-30.984.47.081.261.4 29.416 178.035a.604.604 0 01-.31.622l-.279.072z"/>
    <path fill="#fff" d="M176.235-162.936l29.049 175.825 112.66-148.133-141.709-27.692zm28.687 177.885l-.146-.02a.6.6 0 01-.445-.481l-29.414-178.034.175-.525.528-.157 143.492 28.037.441.372-.081.572-114.076 150-.474.236zM691.218 79.343l22.33 276.847 220.092-56.1L691.218 79.343zm21.792 278.196l-.346-.112-.248-.439-22.507-279.053a.597.597 0 01.994-.489l244.358 222.507.177.586-.432.432-221.849 56.549-.147.019z"/>
    <path fill="#fff" d="M693.473 79.785l241.474 219.882 121.543-66.889L693.473 79.785zm241.388 221.204l-.401-.152L690.102 78.328a.596.596 0 01.632-.989l367.356 154.82c.21.087.36.287.37.517a.603.603 0 01-.31.553l-123.003 67.689-.286.071z"/>
    <path fill="#fff" d="M695.881 79.506l361.729 152.45 44.77-75.881-406.499-76.569zm361.979 153.796l-.23-.044-367.358-154.82a.597.597 0 01.341-1.137l412.817 77.761.43.339-.03.547-45.46 77.062-.51.292z"/>
    <path fill="#fff" d="M641.437-23.967l49.19 100.747 215.667-267.968L641.437-23.967zm49.066 102.45l-.067-.005-.469-.332L640.13-23.92a.596.596 0 01.217-.766l268.336-169.421a.596.596 0 01.782.877l-218.5 271.49-.462.224zM1227.18 200.399l563.14 205.012-304.34-336.895-258.8 131.883zm565.19 206.988l-.21-.036-566.68-206.301a.592.592 0 01-.39-.524.585.585 0 01.32-.567l260.44-132.712a.597.597 0 01.71.133l306.25 339.013c.18.203.2.505.05.732l-.49.262z"/>
    <path fill="#fff" d="M1104.99 155.624l120.34 44.098 38.27-107.055-158.61 62.957zm120.69 45.463l-.2-.037-122.37-44.841a.613.613 0 01-.39-.553c0-.249.15-.472.38-.563l161.28-64.018.64.126c.17.162.23.408.15.63l-38.93 108.86-.3.338-.26.058z"/>
    <path fill="#fff" d="M1265.04 92.18l-38.29 107.099 256.21-130.56-217.92 23.462zm-39.36 108.907l-.39-.151a.603.603 0 01-.17-.646l38.92-108.86c.08-.217.27-.37.5-.394l221.51-23.848c.28-.036.55.145.63.422.09.276-.04.57-.3.698l-260.43 132.711-.27.068zM565.885 340.239l146.474 16.032-22.273-276.13-124.201 260.098zm147.125 17.3l-.065-.005-148.025-16.203-.456-.303-.016-.548L689.964 77.63a.595.595 0 011.133.21l22.506 279.053-.179.474-.414.172z"/>
    <path fill="#fff" d="M452.765 66.763l112.26 272.511L689.578 78.438 452.765 66.763zm112.221 274.572h-.016a.602.602 0 01-.537-.369L451.306 66.349l.065-.57c.116-.165.259-.284.517-.252L690.534 77.29l.481.291.027.56-125.519 262.853a.6.6 0 01-.537.34z"/>
    <path fill="#fff" d="M205.966 13.962l244.599 51.28-131.603-199.859L205.966 13.962zm245.891 52.756l-.122-.012-246.937-51.772-.436-.376.083-.567 114.079-149.998.495-.236.477.267L452.358 65.796l-.005.663-.496.26z"/>
    <path fill="#fff" d="M454.243 65.643L689.525 77.24 640.39-23.389 454.243 65.642zm236.26 12.84l-.031-.002-238.644-11.765a.595.595 0 01-.226-1.13l188.807-90.308a.597.597 0 01.792.277l49.838 102.07-.038.591-.498.267z"/>
    <path fill="#fff" d="M320.24-134.841L452.005 65.262 645.463-82.154 320.24-134.84zm131.617 201.56l-.098-.01-.4-.258L318.5-135.318l-.003-.653a.589.589 0 01.596-.262l327.932 53.126a.592.592 0 01.481.443.59.59 0 01-.217.618L452.219 66.596l-.362.122z"/>
    <path fill="#fff" d="M640.667-24.184h.014-.014zm5.521-57.02L456.83 63.084l183.279-87.662 6.079-56.628zM451.857 66.717l-.505-.285a.592.592 0 01.145-.785l195.07-148.64.656-.046a.604.604 0 01.3.582L641.26-24.12l-.338.471-188.808 90.309-.257.057zM692.696 77.694l409.944 77.22-24.08-223.418L692.696 77.694zm410.624 78.548l-.11-.01-412.817-77.761a.594.594 0 01-.102-1.142L1078.86-69.893l.52.05.29.443 24.24 224.984-.19.5-.4.158z"/>
    <path fill="#fff" d="M909.107-192.787L692.343 76.553 1077.83-69.503 909.107-192.787zM690.503 78.483l-.482-.245a.594.594 0 01.019-.726l218.498-271.489a.595.595 0 01.815-.107L1079.43-69.817a.602.602 0 01-.15 1.04L690.715 78.443l-.212.04z"/>
    <path fill="#fff" d="M1079.75-68.596l23.93 222.025 91.33-199.678-115.26-22.347zm23.57 224.838l-.1-.007a.596.596 0 01-.49-.522l-24.25-224.984.19-.503.52-.148 116.79 22.646.42.315.01.519-92.55 202.338a.593.593 0 01-.54.346zM877.265-309.3L857.957 17.41l187.133-173.58L877.265-309.3zM857.276 19.45l-.253-.055a.595.595 0 01-.343-.575l19.467-329.438a.597.597 0 01.372-.517l.627.112 169.234 154.412.19.436-.19.439L857.681 19.292l-.405.158zM99.09-65.547l22.216 82.498 275.11-371.312L99.089-65.547zm21.96 84.439l-.111-.01a.595.595 0 01-.463-.429l-22.627-84.03.16-.583 302.834-294.16a.596.596 0 01.894.781L121.53 18.651l-.48.24z"/>
    <path fill="#fff" d="M250.307 132.281l584.932 16.902 21.31-129.585L250.307 132.28zm585.435 18.111h-.017l-591.034-17.079a.595.595 0 01-.093-1.182L857.166 18.27l.527.159.172.522-21.534 130.941a.601.601 0 01-.589.5z"/>
    <path fill="#fff" d="M121.846 18.222l122.578 113.42 155.179-488.306L121.846 18.222zm122.861 115.091l-.405-.157L120.645 18.734a.597.597 0 01-.074-.791L400.779-360.25a.59.59 0 01.751-.176c.26.131.383.434.295.71l-156.55 492.611-.417.396-.151.021zM857.783 19.44l-21.238 129.15L1048.4 15.876 857.783 19.44zm-22.041 130.952l-.332-.1a.597.597 0 01-.257-.594l21.534-130.94a.6.6 0 01.577-.5l193.256-3.612h.01c.27 0 .5.174.58.424.07.26-.03.535-.26.677L836.059 150.3l-.317.091z"/>
    <path fill="#fff" d="M1339.64-307.211L1051.89 14.617 1942.4-3.93l-602.76-303.28zm-289.11 323.05a.6.6 0 01-.54-.349l.1-.643 288.96-323.193a.605.605 0 01.72-.133L1945.08-3.918c.24.12.38.396.31.663a.589.589 0 01-.57.462l-894.27 18.631h-.02z"/>
    <path fill="#fff" d="M1045.41-154.84L858.825 18.231l191.095-3.574-4.51-169.497zM857.276 19.45a.593.593 0 01-.551-.372.589.589 0 01.145-.659l188.7-175.028.63-.112a.6.6 0 01.37.534l4.56 171.413-.16.429-.42.183-193.262 3.612h-.012z"/>
    <path fill="#fff" d="M1046.58-155.815l4.51 169.541 285.81-319.659-290.32 150.118zm3.95 171.653l-.2-.036a.602.602 0 01-.39-.546l-4.56-171.412a.594.594 0 01.32-.546l293.53-151.775a.59.59 0 01.74.162c.18.229.17.548-.03.763L1050.98 15.64l-.45.198zM1132.45 330.183l620.34 84.072L1943.64-2.263l-811.19 332.446zm620.7 85.317l-.08-.005-622.98-84.43a.582.582 0 01-.51-.515.582.582 0 01.36-.624L1944.59-3.939c.22-.09.48-.038.65.138.17.178.22.438.12.663l-191.67 418.292a.584.584 0 01-.54.346z"/>
    <path fill="#fff" d="M836.872 149.791l292.358 179.413-79.07-313.023-213.288 133.61zm293.298 181.281l-.31-.088-294.431-180.681-.283-.505.279-.508L1050.22 14.737l.54-.048.35.407 79.64 315.235a.588.588 0 01-.23.625l-.35.116z"/>
    <path fill="#fff" d="M1051.3 15.822l79.28 313.841L1941.62-2.724 1051.3 15.822zm78.87 315.25l-.27-.064-.31-.386-79.63-315.234.1-.508.46-.234 894.28-18.63h.01c.28 0 .53.198.59.476.06.281-.1.562-.36.672L1130.39 331.03l-.22.042zM121.08 19.135l-210.644 223.99 333.127-110.656L121.08 19.135zM-91.612 245.029l-.503-.274a.591.591 0 01.069-.727l212.663-226.14a.6.6 0 01.838-.03l123.658 114.421.176.565-.393.438L-91.425 245l-.187.029z"/>
    <path fill="#fff" d="M-382.095 36.971L-91.786 243.58 97.19-64.86-382.095 36.97zM-91.612 245.03l-.346-.11L-383.89 37.155a.595.595 0 01.221-1.068L98.301-66.315a.609.609 0 01.61.238l.02.656-190.035 310.166-.39.275-.118.009z"/>
    <path fill="#fff" d="M98.207-64.239L-88.077 239.806 120.389 18.131 98.207-64.24zM-91.613 245.03l-.36-.122a.596.596 0 01-.148-.784L97.916-66.043a.595.595 0 011.083.157l22.626 84.029-.142.563-212.661 226.137-.434.186zM702.909-278.299L246.681 131.745 856.377 18.418 702.909-278.3zM244.707 133.313a.599.599 0 01-.536-.333.606.606 0 01.138-.708l458.376-411.975.505-.143.422.312L857.805 18.582l.007.536-.427.322-612.568 113.861-.11.012z"/>
    <path fill="#fff" d="M401.654-359.171L245.94 130.808l455.929-409.774-300.215-80.205zM244.707 133.313l-.324-.095a.596.596 0 01-.243-.682l156.551-492.611a.598.598 0 01.719-.396l301.828 80.635.424.438-.181.582L245.106 133.16l-.399.153z"/>
    <path fill="#fff" d="M703.984-278.816L856.809 16.653l19.293-326.515-172.118 31.046zM857.276 19.45a.591.591 0 01-.529-.32L702.556-278.986l-.007-.536.429-.324 173.66-31.323.501.139.2.484-19.467 329.435a.6.6 0 01-.472.548l-.124.013zM-126.231-180.46L-381.354 35.596 96.662-65.967-126.231-180.46zM-383.545 37.268a.597.597 0 01-.386-1.051l257.234-217.845a.588.588 0 01.657-.074L98.696-66.262a.596.596 0 01-.149 1.113L-383.42 37.253l-.124.015z"/>
    <path fill="#00FFF0" d="M827.918 11.03c-5.069 0-9.176-4.11-9.176-9.179 0-5.067 4.107-9.178 9.176-9.178 5.068 0 9.18 4.11 9.18 9.178 0 5.069-4.112 9.178-9.18 9.178zM417.562 76.31a6.711 6.711 0 010-13.42 6.713 6.713 0 016.71 6.708 6.713 6.713 0 01-6.71 6.713z"/>
    <path fill="#76C6EF" d="M1267.05.926a3.444 3.444 0 110-6.89c1.9 0 3.44 1.544 3.44 3.446a3.442 3.442 0 01-3.44 3.444zM1148.23 71.09c-1.83 0-3.49-.708-4.72-1.868l5.43-11.88a6.898 6.898 0 016.18 6.857 6.895 6.895 0 01-6.89 6.892zm-5.59-2.848a6.894 6.894 0 014.99-10.912l-4.99 10.912z"/>
    <path fill="#5092C2" d="M1142.64 68.244v-.002l4.99-10.912-4.99 10.914z"/>
    <path fill="#5092C2" d="M1143.5 69.222a7.66 7.66 0 01-.86-.978l4.99-10.914a6.496 6.496 0 011.31.012l-5.44 11.88z"/>
    <path fill="#76C6EF" d="M591.858 39.337a8.38 8.38 0 110-16.762 8.382 8.382 0 110 16.762z"/>
    <path fill="#00FFF0" d="M1029.04 38.542c-3.38 0-6.41-1.473-8.49-3.811l19-11.906c.56 1.34.86 2.809.86 4.348 0 6.277-5.09 11.37-11.37 11.37zm-9.24-4.748a11.318 11.318 0 01-2.13-6.62c0-5.116 3.38-9.445 8.03-10.871l6.28-.12a11.38 11.38 0 017.05 5.56l-19.23 12.051z"/>
    <path fill="#00FFF0" d="M1025.7 16.303c1.06-.327 2.18-.501 3.34-.501 1.02 0 2 .134 2.94.382l-6.28.119zM1020.55 34.73c-.27-.297-.52-.612-.75-.936l19.23-12.05c.19.35.37.71.52 1.081l-19 11.906zM238.459 55.552a7.775 7.775 0 01-7.776-7.776 7.778 7.778 0 117.776 7.776zM205.859 103.898c-6.048 0-10.948-4.899-10.948-10.947 0-1.633.358-3.183.999-4.575l15.279 14.14a10.925 10.925 0 01-5.33 1.382zm6.372-2.045l-15.742-14.567a10.94 10.94 0 019.37-5.28c6.043 0 10.944 4.901 10.944 10.945 0 3.67-1.804 6.916-4.572 8.902z"/>
    <path fill="#00FFF0" d="M211.189 102.516l-15.279-14.14 15.279 14.137v.003z"/>
    <path fill="#00FFF0" d="M211.189 102.513L195.91 88.376c.174-.375.366-.739.579-1.09l15.742 14.567c-.334.238-.682.46-1.042.66z"/>
  </g>
  <defs>
    <filter id="filter0_d" width="352.76" height="352.76" x="-176.38" y="535.176" color-interpolation-filters="sRGB" filterUnits="userSpaceOnUse">
      <feFlood flood-opacity="0" result="BackgroundImageFix"/>
      <feColorMatrix in="SourceAlpha" values="0 0 0 0 0 0 0 0 0 0 0 0 0 0 0 0 0 0 127 0"/>
      <feOffset/>
      <feGaussianBlur stdDeviation="7.5"/>
      <feColorMatrix values="0 0 0 0 0 0 0 0 0 0 0 0 0 0 0 0 0 0 0.75 0"/>
      <feBlend in2="BackgroundImageFix" result="effect1_dropShadow"/>
      <feBlend in="SourceGraphic" in2="effect1_dropShadow" result="shape"/>
    </filter>
    <filter id="filter1_d" width="352.762" height="352.762" x="1723.82" y="-96.038" color-interpolation-filters="sRGB" filterUnits="userSpaceOnUse">
      <feFlood flood-opacity="0" result="BackgroundImageFix"/>
      <feColorMatrix in="SourceAlpha" values="0 0 0 0 0 0 0 0 0 0 0 0 0 0 0 0 0 0 127 0"/>
      <feOffset/>
      <feGaussianBlur stdDeviation="7.5"/>
      <feColorMatrix values="0 0 0 0 0 0 0 0 0 0 0 0 0 0 0 0 0 0 0.75 0"/>
      <feBlend in2="BackgroundImageFix" result="effect1_dropShadow"/>
      <feBlend in="SourceGraphic" in2="effect1_dropShadow" result="shape"/>
    </filter>
  </defs>
</svg>
